# xmcd CD database file
#
# Track frame offsets:
#	150
#	15084
#	24587
#	39244
#	56934
#	69917
#	81182
#	96744
#	106861
#	122716
#	136560
#	150690
#	163446
#	177515
#	191364
#	202902
#
# Disc length: 2913 seconds
#
# Revision: 0
# Processed by: cddbd v1.5.2PL0 Copyright (c) Steve Scherf et al.
# Submitted via: CdAid (MTCDDB.DLL V2003.12.21)
#
DISCID=cd0b5f10
DTITLE=Murilo Show - Sonho
DYEAR=1995
DGENRE=Country
TTITLE0=Cigana
TTITLE1=Se Você Me Quiser
TTITLE2=Sonho
TTITLE3=Surra de Amor
TTITLE4=Vem Cá Amor
TTITLE5=Vem Me Ajudar
TTITLE6=Volta Amor
TTITLE7=Candida
TTITLE8=Destino
TTITLE9=É Impossível
TTITLE10=Mar de Rosas
TTITLE11=Maria
TTITLE12=Melô do Ladrão
TTITLE13=Papudinho
TTITLE14=Proncesa
TTITLE15=Forró Rockn Roll
EXTD=ID3G:   2 YEAR: 1995
EXTT0=
EXTT1=
EXTT2=
EXTT3=
EXTT4=
EXTT5=
EXTT6=
EXTT7=
EXTT8=
EXTT9=
EXTT10=
EXTT11=
EXTT12=
EXTT13=
EXTT14=
EXTT15=
PLAYORDER=
